<svg width="96" height="96" xmlns="http://www.w3.org/2000/svg" xmlns:xlink="http://www.w3.org/1999/xlink" xml:space="preserve" overflow="hidden"><g transform="translate(-800 -148)"><g><path d="M854.764 203.3C855.89 204.394 855.916 206.194 854.822 207.32 854.803 207.34 854.784 207.359 854.764 207.378L849.882 208.986 849.021 208.125 850.629 203.243C851.795 202.138 853.629 202.163 854.764 203.3ZM876.824 173.831 848.624 202.094 845 213.007 855.97 209.388 884.176 181.188Z" fill="#000000" fill-rule="nonzero" fill-opacity="1"/><path d="M890.318 171.767 886.24 167.689C885.356 166.785 883.907 166.768 883.003 167.652 882.991 167.664 882.978 167.676 882.966 167.689L878.945 171.71 886.24 179 890.26 174.98C891.162 174.186 891.25 172.812 890.456 171.91 890.412 171.861 890.366 171.813 890.318 171.767Z" fill="#000000" fill-rule="nonzero" fill-opacity="1"/><path d="M826 213 841.842 213 843.168 209 826 209 826 213Z" fill="#000000" fill-rule="nonzero" fill-opacity="1"/><path d="M826 189 857.448 189 861.44 185 826 185 826 189Z" fill="#000000" fill-rule="nonzero" fill-opacity="1"/><path d="M870 199.6 870 230 820 230 820 168 831 168 831 174 859 174 859 168 870 168 870 176.422 874.7 171.71 874.871 171.539 876 170.41 876 166C876 163.791 874.209 162 872 162L855 162 855 160C855 157.791 853.209 156 851 156L839 156C836.791 156 835 157.791 835 160L835 162 818 162C815.791 162 814 163.791 814 166L814 232C814 234.209 815.791 236 818 236L872 236C874.209 236 876 234.209 876 232L876 193.6ZM842.864 160.864C843.429 160.298 844.2 159.986 845 160 846.657 160 848 161.343 848 163 848 164.657 846.657 166 845 166 843.343 166 842 164.657 842 163 841.986 162.2 842.298 161.429 842.864 160.864Z" fill="#000000" fill-rule="nonzero" fill-opacity="1"/><path d="M826 201 845.448 201 849.44 197 826 197 826 201Z" fill="#000000" fill-rule="nonzero" fill-opacity="1"/></g></g></svg>