<svg width="96" height="96" xmlns="http://www.w3.org/2000/svg" xmlns:xlink="http://www.w3.org/1999/xlink" xml:space="preserve" overflow="hidden"><g transform="translate(-592 -312)"><g><path d="M614.2 364.3C614.2 364.3 613.8 368.4 614.2 373.3L614.4 375.3C614.7 379.8 619.5 381.8 623.3 381.4L625.3 381.2C629.1 380.9 632 377.5 631.7 373.7L631.5 371.7C631.1 366.8 629.8 362.8 629.8 362.8L614.2 364.3Z" fill="#000000" fill-rule="evenodd" fill-opacity="1"/><path d="M613 358.5 629.1 357.1C628 343.8 641 337.5 632.2 321.6 632.2 321.6 632.2 321.6 632.2 321.6 629.9 317.5 626.8 316 622.8 316 618.5 316 614.3 318.4 612.1 323.5 608.6 333.1 608.4 345.8 613 358.5Z" fill="#000000" fill-rule="evenodd" fill-opacity="1"/><path d="M665.8 386.8C665.8 386.8 666.2 390.9 665.8 395.8L665.6 397.8C665.3 402.3 660.5 404.3 656.7 403.9L654.7 403.7C650.9 403.4 648 400 648.3 396.2L648.5 394.2C648.9 389.3 650.2 385.3 650.2 385.3L665.8 386.8Z" fill="#000000" fill-rule="evenodd" fill-opacity="1"/><path d="M667 381 650.9 379.6C652 366.4 639 360 647.8 344.1 647.8 344.1 647.8 344.1 647.8 344.1 650.1 340 653.2 338.5 657.2 338.5 661.5 338.5 665.7 340.9 667.9 346 671.4 355.6 671.6 368.3 667 381Z" fill="#000000" fill-rule="evenodd" fill-opacity="1"/></g></g></svg>